<svg xmlns="http://www.w3.org/2000/svg" width="340" height="226" viewBox="0 0 340 226" role="img" aria-label="Most used languages">

  <rect x="0.5" y="0.5" width="339" height="225" rx="10" fill="#161b22" stroke="#30363d"/>
  <line x1="0.5" y1="28" x2="339.5" y2="28" stroke="#30363d"/>
  <circle cx="16" cy="14.5" r="5" fill="#f85149"/>
  <circle cx="33" cy="14.5" r="5" fill="#d29922"/>
  <circle cx="50" cy="14.5" r="5" fill="#3fb950"/>
  <text x="66" y="18.5" font-family="ui-monospace,SFMono-Regular,Menlo,Consolas,monospace" font-size="11" fill="#9198a1">$ ./languages.sh</text>
  <text x="24" y="56" font-family="ui-monospace,SFMono-Regular,Menlo,Consolas,monospace" font-size="15" font-weight="600" fill="#58a6ff">Most Used Languages</text>
  <clipPath id="bar"><rect x="24" y="72" width="292" height="10" rx="5"/></clipPath>
  <g clip-path="url(#bar)">
  <rect x="24.0" y="72" width="105.1" height="10" fill="#3572A5"/>
  <rect x="129.1" y="72" width="59.7" height="10" fill="#b07219"/>
  <rect x="188.8" y="72" width="31.1" height="10" fill="#555555"/>
  <rect x="219.9" y="72" width="29.5" height="10" fill="#3178c6"/>
  <rect x="249.4" y="72" width="17.0" height="10" fill="#adb2cb"/>
  <rect x="266.3" y="72" width="16.0" height="10" fill="#f1e05a"/>
  </g>
  <circle cx="29" cy="108" r="5" fill="#3572A5"/>
  <text x="41" y="112" font-family="ui-monospace,SFMono-Regular,Menlo,Consolas,monospace" font-size="11.5" fill="#c9d1d9">Python <tspan fill="#9198a1">36.0%</tspan></text>
  <circle cx="181" cy="108" r="5" fill="#b07219"/>
  <text x="193" y="112" font-family="ui-monospace,SFMono-Regular,Menlo,Consolas,monospace" font-size="11.5" fill="#c9d1d9">Java <tspan fill="#9198a1">20.4%</tspan></text>
  <circle cx="29" cy="134" r="5" fill="#555555"/>
  <text x="41" y="138" font-family="ui-monospace,SFMono-Regular,Menlo,Consolas,monospace" font-size="11.5" fill="#c9d1d9">C <tspan fill="#9198a1">10.6%</tspan></text>
  <circle cx="181" cy="134" r="5" fill="#3178c6"/>
  <text x="193" y="138" font-family="ui-monospace,SFMono-Regular,Menlo,Consolas,monospace" font-size="11.5" fill="#c9d1d9">TypeScript <tspan fill="#9198a1">10.1%</tspan></text>
  <circle cx="29" cy="160" r="5" fill="#adb2cb"/>
  <text x="41" y="164" font-family="ui-monospace,SFMono-Regular,Menlo,Consolas,monospace" font-size="11.5" fill="#c9d1d9">VHDL <tspan fill="#9198a1">5.8%</tspan></text>
  <circle cx="181" cy="160" r="5" fill="#f1e05a"/>
  <text x="193" y="164" font-family="ui-monospace,SFMono-Regular,Menlo,Consolas,monospace" font-size="11.5" fill="#c9d1d9">JavaScript <tspan fill="#9198a1">5.5%</tspan></text>
</svg>
