<svg xmlns="http://www.w3.org/2000/svg" width="480" height="226" viewBox="0 0 480 226" role="img" aria-label="Francis O'Hara Aidoo's GitHub stats">

  <rect x="0.5" y="0.5" width="479" height="225" rx="10" fill="#161b22" stroke="#30363d"/>
  <line x1="0.5" y1="28" x2="479.5" y2="28" stroke="#30363d"/>
  <circle cx="16" cy="14.5" r="5" fill="#f85149"/>
  <circle cx="33" cy="14.5" r="5" fill="#d29922"/>
  <circle cx="50" cy="14.5" r="5" fill="#3fb950"/>
  <text x="66" y="18.5" font-family="ui-monospace,SFMono-Regular,Menlo,Consolas,monospace" font-size="11" fill="#9198a1">$ ./stats.sh</text>
  <text x="24" y="56" font-family="ui-monospace,SFMono-Regular,Menlo,Consolas,monospace" font-size="15" font-weight="600" fill="#58a6ff">Francis O'Hara Aidoo's GitHub Stats</text>
<g transform="translate(26,72)" fill="#ff8c42"><path fill-rule="evenodd" d="M8 .25a.75.75 0 0 1 .673.418l1.882 3.815 4.21.612a.75.75 0 0 1 .416 1.279l-3.046 2.97.719 4.192a.751.751 0 0 1-1.088.791L8 12.347l-3.766 1.98a.75.75 0 0 1-1.088-.79l.72-4.194L.818 6.374a.75.75 0 0 1 .416-1.28l4.21-.611L7.327.668A.75.75 0 0 1 8 .25Zm0 2.445L6.615 5.5a.75.75 0 0 1-.564.41l-3.097.45 2.24 2.184a.75.75 0 0 1 .216.664l-.528 3.084 2.769-1.456a.75.75 0 0 1 .698 0l2.77 1.456-.53-3.084a.75.75 0 0 1 .216-.664l2.24-2.183-3.096-.45a.75.75 0 0 1-.564-.41L8 2.694Z"/></g>
  <text x="52" y="84" font-family="ui-monospace,SFMono-Regular,Menlo,Consolas,monospace" font-size="13" fill="#c9d1d9">Total Stars Earned:</text>
  <text x="350" y="84" text-anchor="end" font-family="ui-monospace,SFMono-Regular,Menlo,Consolas,monospace" font-size="13" font-weight="600" fill="#e6edf3">3</text>
<g transform="translate(26,97)" fill="#ff8c42"><path fill-rule="evenodd" d="m.427 1.927 1.215 1.215a8.002 8.002 0 1 1-1.6 5.685.75.75 0 1 1 1.493-.154 6.5 6.5 0 1 0 1.18-4.458l1.358 1.358A.25.25 0 0 1 3.896 6H.25A.25.25 0 0 1 0 5.75V2.104a.25.25 0 0 1 .427-.177ZM7.75 4a.75.75 0 0 1 .75.75v2.992l2.028.812a.75.75 0 0 1-.557 1.392l-2.5-1A.751.751 0 0 1 7 8.25v-3.5A.75.75 0 0 1 7.75 4Z"/></g>
  <text x="52" y="109" font-family="ui-monospace,SFMono-Regular,Menlo,Consolas,monospace" font-size="13" fill="#c9d1d9">Total Commits (2026):</text>
  <text x="350" y="109" text-anchor="end" font-family="ui-monospace,SFMono-Regular,Menlo,Consolas,monospace" font-size="13" font-weight="600" fill="#e6edf3">849</text>
<g transform="translate(26,122)" fill="#ff8c42"><path fill-rule="evenodd" d="M1.5 3.25a2.25 2.25 0 1 1 3 2.122v5.256a2.251 2.251 0 1 1-1.5 0V5.372A2.25 2.25 0 0 1 1.5 3.25Zm5.677-.177L9.573.677A.25.25 0 0 1 10 .854V2.5h1A2.5 2.5 0 0 1 13.5 5v5.628a2.251 2.251 0 1 1-1.5 0V5a1 1 0 0 0-1-1h-1v1.646a.25.25 0 0 1-.427.177L7.177 3.427a.25.25 0 0 1 0-.354ZM3.75 2.5a.75.75 0 1 0 0 1.5.75.75 0 0 0 0-1.5Zm0 9.5a.75.75 0 1 0 0 1.5.75.75 0 0 0 0-1.5Zm8.25.75a.75.75 0 1 0 1.5 0 .75.75 0 0 0-1.5 0Z"/></g>
  <text x="52" y="134" font-family="ui-monospace,SFMono-Regular,Menlo,Consolas,monospace" font-size="13" fill="#c9d1d9">Total PRs:</text>
  <text x="350" y="134" text-anchor="end" font-family="ui-monospace,SFMono-Regular,Menlo,Consolas,monospace" font-size="13" font-weight="600" fill="#e6edf3">109</text>
<g transform="translate(26,147)" fill="#ff8c42"><path fill-rule="evenodd" d="M8 9.5a1.5 1.5 0 1 0 0-3 1.5 1.5 0 0 0 0 3Z"/><path fill-rule="evenodd" d="M8 0a8 8 0 1 1 0 16A8 8 0 0 1 8 0ZM1.5 8a6.5 6.5 0 1 0 13 0 6.5 6.5 0 0 0-13 0Z"/></g>
  <text x="52" y="159" font-family="ui-monospace,SFMono-Regular,Menlo,Consolas,monospace" font-size="13" fill="#c9d1d9">Total Issues:</text>
  <text x="350" y="159" text-anchor="end" font-family="ui-monospace,SFMono-Regular,Menlo,Consolas,monospace" font-size="13" font-weight="600" fill="#e6edf3">178</text>
<g transform="translate(26,172)" fill="#ff8c42"><path fill-rule="evenodd" d="M14.064 0h.186C15.216 0 16 .784 16 1.75v.186a8.752 8.752 0 0 1-2.564 6.186l-.458.459c-.314.314-.641.616-.979.904v3.207c0 .608-.315 1.172-.833 1.49l-2.774 1.707a.749.749 0 0 1-1.11-.418l-.954-3.102a1.214 1.214 0 0 1-.145-.125L3.754 9.816a1.218 1.218 0 0 1-.124-.145L.528 8.717a.749.749 0 0 1-.418-1.11l1.71-2.774A1.748 1.748 0 0 1 3.31 4h3.204c.288-.338.59-.665.904-.979l.459-.458A8.749 8.749 0 0 1 14.064 0ZM8.938 3.623h-.002l-.458.458c-.76.76-1.437 1.598-2.02 2.5l-1.5 2.317 2.143 2.143 2.317-1.5c.902-.583 1.74-1.26 2.499-2.02l.459-.458a7.25 7.25 0 0 0 2.123-5.127V1.75a.25.25 0 0 0-.25-.25h-.186a7.249 7.249 0 0 0-5.125 2.123ZM3.56 14.56c-.732.732-2.334 1.045-3.005 1.148a.234.234 0 0 1-.201-.064.234.234 0 0 1-.064-.201c.103-.671.416-2.273 1.15-3.003a1.502 1.502 0 1 1 2.12 2.12Zm6.94-3.935c-.088.06-.177.118-.266.175l-2.35 1.521.548 1.783 1.949-1.2a.25.25 0 0 0 .119-.213ZM3.678 8.116 5.2 5.766c.058-.09.117-.178.176-.266H3.309a.25.25 0 0 0-.213.119l-1.2 1.95ZM12 5a1 1 0 1 1-2 0 1 1 0 0 1 2 0Z"/></g>
  <text x="52" y="184" font-family="ui-monospace,SFMono-Regular,Menlo,Consolas,monospace" font-size="13" fill="#c9d1d9">Repos Collaborated On (Last Year):</text>
  <text x="350" y="184" text-anchor="end" font-family="ui-monospace,SFMono-Regular,Menlo,Consolas,monospace" font-size="13" font-weight="600" fill="#e6edf3">7</text>
  <g transform="translate(410,131)">
    <circle r="40" fill="none" stroke="#21262d" stroke-width="6"/>
    <circle r="40" fill="none" stroke="#58a6ff" stroke-width="6" stroke-linecap="round"
      stroke-dasharray="149.4 251.3" transform="rotate(-90)"/>
    <text y="8" text-anchor="middle" font-family="ui-monospace,SFMono-Regular,Menlo,Consolas,monospace" font-size="22" font-weight="700" fill="#58a6ff">B+</text>
  </g>
</svg>
